<?xml version="1.0" standalone="no"?>
<!DOCTYPE svg PUBLIC "-//W3C//DTD SVG 20010904//EN"
 "http://www.w3.org/TR/2001/REC-SVG-20010904/DTD/svg10.dtd">
<svg version="1.0" xmlns="http://www.w3.org/2000/svg"
 width="512.000000pt" height="512.000000pt" viewBox="0 0 512.000000 512.000000"
 preserveAspectRatio="xMidYMid meet">

<g transform="translate(0.000000,512.000000) scale(0.100000,-0.100000)"
fill="#000000" stroke="none">
<path d="M0 2560 c0 -1408 4 -2560 8 -2560 4 0 8 281 7 625 0 545 2 627 15
636 11 8 12 12 3 16 -16 6 -19 1317 -3 1373 15 54 26 66 43 52 12 -10 16 -9
21 4 4 11 10 13 19 7 17 -13 97 -17 97 -4 0 5 -4 13 -10 16 -16 10 -12 33 11
54 16 14 27 17 48 11 70 -20 101 -64 106 -149 3 -61 18 -100 38 -102 98 -9
157 9 264 81 49 33 101 39 143 15 14 -8 35 -14 48 -15 12 0 22 -4 22 -9 0 -4
26 -16 58 -25 31 -10 62 -19 69 -21 20 -6 26 -52 14 -101 -10 -39 -9 -49 4
-64 8 -9 15 -20 15 -23 0 -4 19 -37 42 -74 22 -38 48 -88 57 -113 22 -60 30
-71 72 -103 40 -30 85 -35 115 -12 12 9 31 12 52 9 20 -4 38 -1 48 7 10 8 42
12 90 11 41 -1 74 2 74 7 0 4 -21 8 -46 8 -40 0 -51 4 -81 36 -19 21 -42 37
-52 37 -10 0 -25 8 -34 18 -15 16 -15 21 -2 38 8 10 15 36 15 57 0 30 8 45 35
73 19 19 35 36 35 38 0 2 -13 32 -30 68 -16 35 -33 86 -36 113 -4 28 -26 127
-50 220 -43 173 -49 241 -29 353 6 35 59 102 80 102 8 0 21 7 29 16 17 16 56
28 56 16 0 -4 20 -34 45 -67 25 -33 45 -66 45 -74 0 -8 19 -39 41 -69 39 -51
42 -59 47 -139 4 -67 7 -82 17 -71 20 21 95 193 95 217 0 30 39 121 63 149 11
12 29 22 39 22 20 0 118 86 118 103 0 5 15 33 34 61 37 56 66 119 66 145 0 9
6 28 14 42 7 14 16 36 20 50 10 38 37 63 82 77 55 16 79 15 94 -3 24 -29 79
-48 125 -42 25 2 48 1 51 -4 3 -5 33 -9 68 -9 34 0 66 -4 72 -9 13 -13 124
-51 150 -51 12 0 38 -7 57 -15 20 -8 58 -15 85 -15 53 0 112 -16 112 -31 0 -5
-4 -9 -10 -9 -5 0 -10 -4 -10 -10 0 -5 18 -10 40 -10 32 0 46 -6 64 -26 17
-20 33 -27 65 -29 24 -1 47 -8 51 -15 5 -7 17 -10 29 -7 15 4 33 -5 61 -31 22
-19 40 -41 40 -47 0 -7 7 -18 16 -26 12 -10 20 -10 35 -1 15 10 20 10 23 0 25
-87 27 -103 17 -106 -6 -2 -11 -11 -11 -21 0 -10 -14 -24 -32 -32 -28 -14 -33
-23 -44 -75 -6 -32 -9 -83 -6 -112 3 -29 0 -63 -5 -75 -6 -12 -16 -35 -22 -50
-6 -15 -16 -25 -21 -22 -6 4 -10 -8 -10 -29 0 -29 -5 -38 -30 -51 -17 -9 -47
-17 -66 -19 -20 -1 -40 -9 -44 -17 -5 -8 -22 -14 -37 -15 -15 0 -44 -4 -63 -8
-26 -5 -31 -4 -20 3 11 8 5 10 -25 8 -65 -6 -91 -38 -98 -122 -4 -38 -1 -101
5 -140 6 -38 10 -111 9 -162 -1 -67 2 -100 13 -122 19 -35 13 -54 -20 -76 -13
-8 -24 -22 -24 -29 0 -8 -11 -28 -25 -44 -14 -17 -25 -40 -25 -53 -1 -39 -63
-72 -119 -65 -26 3 -73 9 -106 12 -34 4 -68 13 -77 23 -44 40 -54 49 -75 60
-12 6 -26 11 -32 11 -17 0 -13 -27 4 -34 18 -7 18 -16 1 -39 -28 -36 -191 -43
-191 -7 0 22 -56 32 -83 14 -36 -24 -79 -74 -109 -126 -14 -27 -30 -48 -35
-48 -4 0 -8 -12 -7 -27 0 -25 1 -26 9 -8 6 14 7 7 4 -21 l-6 -41 43 -6 c24 -3
49 -2 55 4 6 5 13 6 17 3 3 -3 14 -1 25 5 17 9 25 5 50 -27 24 -28 33 -34 43
-25 6 6 18 9 25 6 11 -4 14 6 14 41 0 43 2 46 28 47 43 3 55 5 85 13 20 6 33
4 45 -7 11 -10 36 -15 69 -14 40 1 60 -5 83 -21 18 -13 44 -22 67 -22 57 0 79
-9 91 -36 10 -20 16 -23 42 -18 19 4 36 1 46 -7 9 -8 24 -14 33 -14 10 0 15
-7 13 -20 -5 -28 -21 -42 -62 -52 -44 -11 -186 -10 -222 1 -19 6 -28 5 -28 -3
0 -6 6 -13 13 -15 64 -17 98 -22 103 -15 9 14 44 10 44 -5 0 -8 10 -16 23 -20
12 -3 28 -15 35 -27 21 -33 -2 -48 -99 -64 -72 -11 -85 -11 -92 1 -10 17 -20
17 -71 3 -29 -8 -36 -13 -27 -22 9 -9 6 -16 -10 -28 -20 -15 -21 -17 -5 -41
13 -20 14 -31 6 -52 -15 -40 -13 -44 19 -51 16 -3 32 -12 35 -20 3 -8 14 -11
28 -8 13 3 18 1 12 -4 -6 -4 -14 -29 -17 -55 -6 -41 -4 -48 13 -53 11 -3 24
-3 30 0 5 3 10 -1 10 -10 0 -9 -4 -13 -10 -10 -5 3 -20 -1 -34 -10 -15 -10
-27 -12 -30 -6 -4 5 -2 12 4 16 16 10 11 25 -8 25 -11 0 -27 -9 -37 -20 -22
-24 -34 -25 -50 -4 -10 14 -14 15 -34 3 -21 -13 -24 -12 -38 8 -20 29 -41 29
-52 1 l-8 -22 -12 23 c-9 16 -9 26 -2 35 14 16 4 46 -15 46 -16 0 -34 -31 -34
-59 0 -11 -5 -23 -12 -27 -8 -5 -10 3 -5 28 7 45 -5 67 -27 49 -21 -18 -38
-10 -43 19 -2 13 -8 27 -14 30 -5 4 -9 13 -7 21 2 9 -5 14 -19 13 -19 0 -22 3
-17 23 8 29 -3 29 -33 1 -22 -20 -24 -20 -42 -4 -11 10 -17 25 -14 37 4 12 -1
25 -12 33 -16 12 -16 16 -2 64 9 31 11 52 5 52 -16 0 -72 -34 -85 -51 -8 -10
-22 -14 -42 -11 -26 4 -30 8 -25 27 4 17 -2 28 -25 44 -17 13 -31 29 -31 37 0
11 -6 13 -21 9 -14 -5 -25 -1 -35 12 -21 26 -64 114 -64 130 0 7 -4 21 -9 31
-19 36 -30 69 -46 137 -9 39 -22 93 -30 120 -7 28 -17 68 -21 90 -4 22 -9 32
-11 22 -3 -9 -11 -17 -18 -17 -16 0 -50 -84 -40 -99 3 -6 -2 -14 -12 -18 -10
-4 -21 -11 -24 -16 -4 -5 -28 -10 -55 -11 -26 -2 -50 -8 -52 -14 -3 -9 -9 -9
-23 -2 -13 8 -25 7 -41 -1 -18 -10 -24 -8 -35 7 -7 10 -13 30 -13 45 0 22 -6
28 -32 34 -18 5 -37 9 -43 9 -5 1 -15 5 -22 9 -18 11 -71 -19 -124 -71 -44
-42 -102 -72 -141 -72 -26 0 -51 -56 -44 -99 18 -111 31 -125 93 -100 15 6 37
15 48 20 116 46 383 95 549 100 l70 2 13 -38 c7 -21 17 -43 22 -49 5 -6 12
-27 16 -46 4 -19 11 -39 15 -45 4 -5 11 -21 15 -34 4 -14 16 -34 27 -45 11
-12 31 -42 44 -68 13 -26 28 -49 33 -52 5 -4 22 -31 38 -62 15 -31 40 -65 56
-76 15 -11 27 -25 27 -32 0 -7 10 -25 23 -39 12 -14 40 -47 62 -73 22 -27 55
-62 73 -79 17 -17 32 -36 32 -41 0 -5 15 -25 33 -44 28 -32 31 -39 20 -59 -6
-13 -25 -33 -42 -43 -17 -11 -31 -24 -31 -29 0 -13 -48 -11 -52 3 -6 17 -119
11 -140 -9 -24 -22 -98 -9 -98 17 0 15 -10 20 -47 25 -73 10 -79 13 -127 58
-24 23 -57 50 -71 61 -21 14 -26 24 -22 44 8 41 -9 75 -33 67 -16 -5 -20 -2
-21 17 -2 38 2 62 14 76 6 7 14 92 19 190 4 97 13 192 18 210 6 17 8 42 5 53
-5 16 -4 19 5 14 8 -5 11 -3 8 6 -3 8 3 25 13 38 20 25 25 51 11 51 -5 0 -22
-7 -38 -15 -16 -8 -65 -21 -109 -29 -224 -41 -297 -56 -375 -76 -47 -12 -97
-24 -112 -27 -15 -3 -29 -11 -32 -18 -4 -13 27 -113 81 -260 35 -96 190 -415
213 -440 10 -11 29 -34 42 -52 13 -17 41 -56 64 -85 22 -29 56 -91 74 -137 39
-97 72 -143 91 -124 9 9 20 7 50 -8 20 -11 43 -27 50 -35 7 -8 27 -21 44 -28
17 -7 76 -42 131 -78 54 -35 113 -73 131 -84 17 -10 84 -58 147 -107 l116 -87
187 0 188 1 32 52 c17 29 63 86 102 127 77 83 164 189 189 232 9 15 20 28 24
28 4 0 8 11 8 24 0 13 14 41 31 62 41 52 39 50 49 35 5 -9 15 -11 26 -7 15 6
16 9 5 16 -11 6 -13 23 -8 69 4 34 11 70 17 81 5 10 11 54 11 97 1 43 3 70 6
60 2 -9 9 -17 14 -17 5 0 18 -19 29 -42 l18 -43 -5 37 c-4 27 1 49 17 80 13
24 24 58 26 75 1 18 11 45 22 61 12 15 24 40 27 55 4 15 15 31 24 36 13 7 17
28 19 102 4 109 13 136 45 145 16 3 34 23 51 54 14 26 33 53 42 60 8 8 31 37
51 67 25 38 41 53 58 53 12 0 57 16 99 35 43 19 88 35 100 35 22 0 43 26 31
38 -3 3 -40 -7 -83 -22 -141 -51 -142 -51 -84 55 28 53 41 69 55 65 19 -5 23
9 6 20 -7 4 -9 22 -6 43 9 67 24 89 76 116 61 31 65 31 57 3 -13 -53 4 -94 56
-134 l50 -38 -5 -48 c-7 -54 5 -62 41 -27 23 20 42 18 42 -5 0 -7 11 -22 25
-34 14 -12 25 -26 25 -32 0 -5 10 -10 23 -10 12 0 32 -7 44 -15 19 -13 26 -12
77 8 36 15 65 35 81 57 14 18 57 56 97 83 40 27 88 62 106 79 18 16 48 36 67
44 32 13 33 15 33 69 0 31 -5 58 -9 61 -5 3 -9 18 -9 33 0 16 -9 40 -20 54
-13 17 -19 38 -18 65 0 22 -9 65 -22 96 -18 45 -21 70 -18 126 3 65 6 72 38
100 19 16 42 29 50 30 9 0 25 6 36 14 11 8 36 16 55 18 33 3 34 5 44 60 7 42
17 62 37 77 14 12 31 21 36 21 6 0 12 5 14 11 5 15 74 28 153 29 39 0 75 4 80
9 14 14 127 41 169 41 l36 0 0 206 c0 133 -3 203 -10 199 -13 -8 -60 39 -60
60 0 28 20 55 47 66 25 9 25 11 21 95 -5 99 -13 110 -83 123 -72 14 -105 53
-105 127 0 97 35 136 133 148 l57 7 0 237 c0 130 -4 232 -8 226 -4 -6 -20 -15
-37 -21 -27 -9 -30 -14 -33 -58 -2 -26 2 -53 7 -58 13 -13 14 -54 2 -61 -5 -3
-12 -18 -16 -33 -10 -40 -68 -108 -110 -127 -20 -10 -50 -30 -68 -45 -45 -39
-56 -41 -144 -31 -71 8 -80 11 -105 41 -30 35 -30 54 1 98 9 13 25 40 36 60
11 19 39 49 62 66 75 54 68 70 -44 105 -40 13 -73 26 -73 30 0 4 -9 10 -20 13
-11 3 -20 13 -20 23 0 9 -11 36 -24 58 -16 27 -25 63 -29 108 -5 58 -2 74 18
113 22 40 23 51 15 97 -6 28 -15 57 -21 64 -6 8 -9 23 -6 34 5 19 -8 25 -48
22 -92 -6 -159 -38 -233 -109 -7 -7 -20 -13 -27 -13 -24 0 -26 -17 -4 -67 22
-51 22 -85 -1 -164 -14 -50 -14 -52 30 -119 79 -120 121 -240 102 -290 -11
-27 12 -80 34 -80 6 0 17 -7 24 -15 7 -9 28 -23 46 -31 19 -9 40 -30 49 -47
27 -54 19 -87 -31 -118 -19 -11 -37 -31 -40 -44 -3 -14 -15 -27 -25 -30 -10
-4 -19 -13 -19 -21 0 -18 -29 -18 -36 0 -3 8 -19 20 -35 26 -16 7 -29 19 -29
26 0 23 -18 16 -42 -16 -39 -54 -74 -33 -98 60 -19 69 -75 168 -116 205 -29
25 -65 110 -67 156 -2 45 -4 49 -39 65 -47 21 -174 142 -188 179 -8 20 -7 31
1 42 21 24 79 43 134 43 61 0 65 5 65 86 0 62 -15 76 -53 51 -29 -19 -127 -48
-137 -42 -13 8 -60 -13 -60 -27 0 -6 -12 -24 -26 -39 -30 -31 -40 -31 -155 2
-71 20 -209 20 -233 0 -7 -6 -28 -11 -47 -12 -59 -2 -182 11 -194 21 -19 16
-125 40 -200 46 -38 3 -102 12 -142 20 -59 12 -80 13 -115 3 -24 -7 -47 -16
-52 -21 -6 -4 -37 -8 -70 -9 -66 0 -262 -23 -286 -32 -8 -4 -34 -8 -57 -11
-23 -2 -47 -7 -52 -11 -6 -3 -11 -2 -11 3 0 6 -10 7 -22 4 -22 -5 -22 -5 -5
12 9 10 15 22 12 27 -10 16 -93 69 -109 69 -8 0 -21 6 -29 14 -24 24 -89 48
-139 51 -45 2 -63 -7 -35 -19 8 -3 4 -11 -12 -26 -31 -27 -51 -12 -31 24 17
33 2 52 -50 61 -22 4 -55 17 -75 30 -66 46 -73 47 -124 34 -55 -14 -99 -6
-108 19 -4 9 -19 32 -35 51 -37 42 -48 71 -58 150 -5 35 -17 79 -26 97 l-19
34 -272 0 -273 0 2 -31 c1 -17 12 -40 24 -52 11 -12 26 -32 32 -43 8 -15 38
-30 97 -49 84 -28 88 -28 136 -13 44 15 50 15 58 1 10 -19 -5 -80 -25 -100 -8
-8 -14 -21 -14 -29 0 -18 -58 -54 -75 -48 -20 8 -27 -13 -9 -30 14 -15 13 -16
-15 -16 -18 0 -38 -9 -49 -20 l-19 -21 -6 21 c-6 23 -37 18 -37 -6 0 -8 -4
-14 -10 -14 -5 0 -10 11 -10 24 0 19 -4 22 -25 18 -22 -4 -25 -1 -25 25 0 16
-7 39 -17 52 -9 13 -17 37 -19 53 -1 17 -7 35 -13 41 -6 6 -11 38 -12 72 0 33
-8 83 -18 110 l-18 50 -95 3 c-92 3 -96 2 -102 -20 -11 -44 -6 -69 29 -119 60
-88 57 -118 -20 -219 -18 -25 -34 -50 -34 -56 -1 -7 -8 -14 -16 -18 -8 -3 -15
-14 -15 -25 0 -17 -4 -18 -41 -10 -22 5 -45 6 -51 3 -15 -9 11 -24 44 -24 20
0 47 -20 103 -73 74 -71 76 -74 82 -130 6 -58 6 -58 -35 -98 -23 -21 -51 -39
-62 -39 -35 0 -80 -40 -80 -71 0 -28 62 -119 99 -145 12 -9 63 -20 113 -25
l92 -9 41 40 c45 45 75 50 105 20 16 -16 18 -25 10 -40 -8 -15 -6 -30 11 -62
12 -25 23 -71 26 -109 5 -59 3 -68 -20 -95 -25 -29 -26 -29 -132 -29 -133 0
-144 -8 -113 -88 39 -102 41 -112 31 -168 -5 -30 -5 -70 -1 -89 27 -115 22
-142 -39 -217 l-34 -43 22 -30 c14 -18 34 -32 53 -35 118 -19 149 -26 170 -42
24 -18 56 -78 56 -104 -1 -25 -71 -91 -107 -99 -43 -10 -118 12 -153 44 -14
13 -45 30 -70 36 -25 7 -54 19 -65 28 -17 15 -18 15 -7 1 11 -14 9 -16 -13
-16 -14 0 -22 4 -18 9 6 10 -66 84 -78 81 -16 -5 -18 61 -4 83 8 13 15 30 15
39 0 9 7 18 15 21 17 7 19 27 5 52 -20 35 -79 193 -94 252 -23 91 -21 189 6
245 17 35 26 44 40 39 12 -4 18 0 18 11 0 9 -8 19 -18 22 -16 4 -62 76 -62 96
0 5 -9 22 -20 37 -18 25 -25 28 -56 23 -25 -4 -39 -2 -45 8 -9 15 -13 259 -4
259 3 0 15 -5 28 -12 48 -25 55 -26 78 -14 25 12 35 49 25 92 -7 25 -39 33
-51 14 -3 -5 -17 -10 -31 -10 -18 0 -24 5 -24 23 0 16 -3 18 -9 8 -5 -7 -11
-9 -14 -5 -3 5 -7 188 -8 406 -2 219 -7 398 -11 398 -5 0 -8 -1152 -8 -2560z
m740 2040 c0 -5 -2 -10 -4 -10 -3 0 -8 5 -11 10 -3 6 -1 10 4 10 6 0 11 -4 11
-10z m960 -10 c0 -5 -2 -10 -4 -10 -3 0 -8 5 -11 10 -3 6 -1 10 4 10 6 0 11
-4 11 -10z m-260 -45 c14 -8 35 -14 47 -15 17 0 29 -13 49 -52 14 -29 32 -60
39 -68 7 -8 15 -28 19 -44 8 -31 77 -106 99 -106 6 0 18 -13 25 -30 11 -25 11
-34 -2 -57 -8 -16 -22 -50 -30 -78 -8 -27 -26 -81 -40 -120 -39 -109 -58 -218
-63 -365 -3 -83 -11 -150 -20 -175 -8 -22 -17 -50 -20 -62 -3 -13 -9 -23 -13
-23 -21 0 -130 124 -159 183 -8 15 -18 27 -23 27 -4 0 -8 7 -8 15 0 8 -9 19
-20 25 -11 6 -20 16 -20 23 0 7 -24 27 -53 45 -30 18 -64 46 -76 63 -23 31
-23 34 -12 131 6 54 11 118 11 142 0 45 10 56 49 56 40 0 82 84 83 165 1 24
-7 59 -19 81 -31 60 -35 102 -17 156 25 77 112 119 174 83z m2178 -281 c28
-19 52 -38 52 -42 0 -5 -14 -9 -30 -10 -43 -1 -70 -11 -70 -26 0 -9 -14 -13
-39 -13 -29 0 -38 3 -34 13 6 15 -13 19 -21 5 -4 -5 -30 4 -59 20 -68 37 -90
37 -42 -1 21 -16 41 -30 44 -30 3 0 22 -14 41 -30 27 -23 31 -30 17 -30 -19 0
-98 42 -129 68 -9 8 -22 11 -27 7 -6 -3 -11 0 -11 9 0 8 -2 20 -5 28 -3 7 -1
19 4 27 7 11 17 11 61 1 32 -8 55 -9 59 -3 10 15 40 23 46 13 4 -6 13 -10 22
-10 12 0 13 3 3 15 -6 8 -9 19 -5 24 10 17 66 0 123 -35z m56 25 c40 -31 31
-43 -14 -18 -22 13 -40 26 -40 31 0 15 27 8 54 -13z m-293 -150 c17 -17 28
-33 25 -36 -7 -7 -76 45 -76 58 0 17 19 9 51 -22z m-122 -99 c3 0 7 -16 8 -35
1 -30 -1 -34 -15 -26 -21 11 -58 51 -48 51 4 0 0 10 -8 22 -25 35 -19 39 20
13 20 -14 40 -25 43 -25z m-99 20 c0 -5 -2 -10 -4 -10 -3 0 -8 5 -11 10 -3 6
-1 10 4 10 6 0 11 -4 11 -10z m20 -85 c10 -12 10 -15 -4 -15 -9 0 -16 7 -16
15 0 8 2 15 4 15 2 0 9 -7 16 -15z m-2154 -315 c14 -30 35 -67 46 -82 17 -24
18 -33 8 -63 -6 -19 -16 -35 -21 -35 -5 0 -9 -9 -9 -20 0 -35 -56 -60 -132
-60 -37 0 -69 4 -72 9 -3 4 -38 11 -78 13 -82 6 -128 23 -128 48 0 9 -9 25
-20 35 -31 28 -24 49 39 112 84 84 143 112 286 136 25 4 50 -23 81 -93z m3176
-17 l29 -27 59 15 c33 9 62 13 65 11 3 -3 5 -22 5 -42 0 -45 12 -56 65 -64 22
-3 41 -5 41 -6 2 0 9 -27 20 -70 2 -8 6 -25 10 -37 5 -18 1 -25 -17 -31 -20
-8 -23 -16 -24 -75 -3 -111 -65 -177 -154 -162 -22 4 -51 18 -65 32 -23 22
-26 34 -26 92 1 86 13 137 41 167 l22 23 -32 30 c-18 17 -38 28 -45 25 -20 -8
-46 40 -51 96 -4 42 -2 50 12 50 9 0 30 -12 45 -27z m651 -50 c3 -10 8 -31 11
-46 4 -17 16 -31 32 -37 16 -7 24 -16 22 -28 -3 -14 -15 -17 -77 -17 -64 -1
-74 2 -82 20 -13 32 -35 55 -52 55 -17 0 -29 22 -19 36 7 9 32 25 81 50 20 11
29 10 52 -1 15 -8 30 -23 32 -32z m-419 -594 c20 -12 36 -28 36 -37 0 -8 14
-27 32 -42 l31 -26 -22 -40 c-12 -21 -36 -47 -53 -57 l-32 -18 47 -41 c63 -53
71 -70 52 -107 -11 -23 -25 -32 -57 -38 -33 -7 -48 -16 -63 -40 -34 -55 -76
-44 -132 34 l-22 31 20 38 c10 21 26 42 34 47 8 4 15 16 15 27 0 12 12 22 35
30 42 14 53 29 33 44 -41 31 -62 99 -48 161 13 59 37 68 94 34z m-384 -148 c0
-10 -9 -21 -20 -24 -22 -6 -25 5 -9 34 12 23 29 16 29 -10z m-676 3 c8 -21 1
-28 -18 -21 -9 4 -13 13 -10 22 8 20 20 19 28 -1z m-3341 -76 c4 -29 3 -48 -3
-48 -6 0 -10 23 -10 52 0 62 5 60 13 -4z m47 2 c0 -28 -5 -50 -10 -50 -6 0 -9
20 -8 50 4 65 18 65 18 0z m17 -27 c-2 -16 -4 -3 -4 27 0 30 2 43 4 28 2 -16
2 -40 0 -55z m3911 19 c2 -7 -3 -12 -12 -12 -9 0 -16 7 -16 16 0 17 22 14 28
-4z m-19 -93 c-42 -32 -64 -23 -46 19 21 51 28 54 50 26 l20 -26 -24 -19z
m-2721 -19 c1 0 2 -16 2 -35 0 -45 -36 -65 -119 -65 l-59 0 1 45 c2 42 5 46
42 64 36 17 44 17 85 5 25 -8 46 -14 48 -14z m2852 -115 c0 -7 7 -15 15 -19
28 -11 15 -23 -32 -30 -36 -5 -51 -2 -65 11 -24 21 -23 38 3 57 24 16 79 4 79
-19z m-920 -36 c0 -18 -2 -19 -15 -9 -15 12 -12 30 6 30 5 0 9 -10 9 -21z
m155 -360 c6 -7 6 -12 0 -17 -6 -4 -12 -16 -13 -27 -5 -29 -18 -39 -39 -30
-17 8 -25 10 -47 13 -6 1 -1 9 10 17 15 12 16 16 6 23 -11 7 -10 12 4 26 17
18 58 15 79 -5z m-400 -79 c-6 -9 -9 -9 -16 1 -10 17 0 34 13 21 6 -6 7 -16 3
-22z m9 -56 c23 -9 1 -34 -29 -34 -31 0 -38 11 -17 26 20 15 25 16 46 8z
m-599 -174 c3 -5 29 -9 58 -8 29 1 61 -3 72 -9 26 -14 76 -28 148 -44 61 -13
72 -25 32 -35 -17 -4 -32 -1 -43 9 -16 15 -34 17 -127 16 -81 -1 -281 14 -289
21 -15 15 4 29 52 36 26 3 54 10 62 15 20 11 28 11 35 -1z m-967 -262 c-2 -12
-9 -23 -16 -26 -10 -3 -11 16 -3 46 1 1 6 2 12 2 6 0 9 -10 7 -22z m1282 -475
c-1 -18 -18 -35 -24 -24 -4 6 -4 16 -1 21 7 12 25 13 25 3z m-150 -108 c0 -8
-4 -15 -9 -15 -13 0 -22 16 -14 24 11 11 23 6 23 -9z m-496 -250 c12 -9 16
-20 12 -31 -5 -13 -9 -15 -18 -6 -7 7 -20 12 -29 12 -21 0 -33 16 -24 30 9 14
37 12 59 -5z m-112 -32 c18 -16 24 -44 12 -56 -5 -5 -44 57 -44 70 0 8 15 1
32 -14z"/>
<path d="M130 5080 c36 -22 74 -43 85 -46 11 -4 27 -13 36 -21 15 -12 20 -11
43 11 26 24 26 25 7 31 -27 8 -27 25 -1 25 11 0 20 5 20 11 0 7 -11 8 -30 4
-19 -4 -41 -1 -61 9 -20 10 -58 16 -98 16 l-66 0 65 -40z"/>
<path d="M2113 5013 c-29 -6 -63 -49 -63 -79 0 -13 3 -24 8 -24 4 0 12 -10 17
-22 12 -27 99 -76 136 -77 77 -3 31 192 -47 203 -16 2 -39 2 -51 -1z"/>
<path d="M4823 4981 c-66 -8 -74 -17 -39 -44 64 -50 105 -90 111 -107 3 -11
14 -22 25 -25 10 -3 21 -17 24 -30 7 -28 32 -33 62 -10 10 8 16 15 12 16 -29
6 -78 27 -78 34 0 3 7 22 15 43 10 23 14 50 10 73 -5 31 -11 38 -44 48 -21 6
-40 10 -42 10 -2 -1 -27 -5 -56 -8z"/>
<path d="M2896 4862 c-2 -4 -1 -14 4 -22 7 -11 12 -12 21 -3 6 6 8 16 5 22 -8
13 -23 14 -30 3z"/>
<path d="M4985 4820 c-3 -5 -1 -10 4 -10 6 0 11 5 11 10 0 6 -2 10 -4 10 -3 0
-8 -4 -11 -10z"/>
<path d="M3597 4583 c-12 -11 -8 -23 8 -23 8 0 15 7 15 15 0 16 -12 20 -23 8z"/>
<path d="M3550 4560 c0 -5 4 -10 9 -10 6 0 13 5 16 10 3 6 -1 10 -9 10 -9 0
-16 -4 -16 -10z"/>
<path d="M2095 2996 c-23 -17 -25 -15 38 -44 59 -27 61 -48 5 -62 -90 -23 -99
-29 -96 -68 3 -33 6 -36 53 -49 34 -10 63 -28 91 -56 65 -66 97 -93 129 -110
27 -14 28 -16 8 -17 -26 0 -73 -20 -73 -31 0 -21 123 -48 250 -55 100 -6 117
-5 129 10 7 9 22 16 32 16 21 0 34 25 44 83 3 20 15 46 27 57 20 18 20 20 4
44 -15 24 -15 26 3 36 11 5 26 10 33 10 17 1 58 35 58 49 0 6 -10 11 -22 12
-13 0 -17 3 -10 6 24 9 1 23 -40 23 -28 0 -49 7 -70 25 -16 14 -38 25 -49 25
-10 0 -36 6 -56 14 -21 7 -65 21 -98 31 -33 10 -66 23 -73 28 -39 30 -284 48
-317 23z m145 -231 c0 -42 -2 -45 -19 -35 -11 5 -27 20 -35 32 -19 26 -5 48
30 48 22 0 24 -4 24 -45z m50 17 c0 -13 -12 -22 -22 -16 -10 6 -1 24 13 24 5
0 9 -4 9 -8z m200 -83 c0 -23 -29 -39 -69 -39 -37 0 -40 12 -7 34 14 8 27 25
31 36 6 20 8 21 26 4 10 -9 19 -25 19 -35z"/>
<path d="M1489 2942 c-46 -43 -52 -54 -56 -99 -5 -49 -4 -52 41 -98 30 -30 52
-45 62 -41 25 10 -2 76 -31 76 -18 0 -27 44 -15 74 16 42 92 69 110 38 9 -16
9 -16 10 1 0 9 -4 17 -9 17 -6 0 -11 17 -13 38 -5 57 -35 55 -99 -6z"/>
<path d="M1573 2804 c-28 -31 -29 -44 -5 -44 11 0 24 11 30 25 23 51 10 60
-25 19z"/>
<path d="M1621 2750 c-13 -28 -35 -57 -49 -66 -22 -14 -24 -21 -18 -61 5 -36
2 -53 -15 -79 -24 -39 -19 -51 27 -70 26 -11 34 -21 40 -49 3 -19 10 -37 14
-40 16 -10 34 101 30 190 -2 50 -4 120 -4 158 0 37 -1 67 -1 67 0 -1 -11 -23
-24 -50z"/>
<path d="M293 2536 c-6 -8 -10 -16 -7 -19 3 -2 -7 -2 -21 0 -25 5 -25 5 -25
-61 0 -65 27 -146 49 -146 5 0 7 -17 4 -38 -6 -44 16 -76 59 -86 23 -5 28 -2
37 26 16 45 3 184 -21 225 -12 19 -17 40 -13 52 4 13 -1 27 -14 40 -24 24 -32
25 -48 7z"/>
<path d="M1612 2345 c0 -16 2 -22 5 -12 2 9 2 23 0 30 -3 6 -5 -1 -5 -18z"/>
<path d="M2340 2210 c0 -5 -13 -16 -29 -25 -16 -8 -44 -28 -62 -44 -27 -25
-30 -31 -16 -37 19 -7 77 26 94 55 7 11 19 18 27 15 9 -3 15 4 18 20 4 20 1
26 -13 26 -11 0 -19 -4 -19 -10z"/>
<path d="M5064 2113 c-16 -21 -36 -45 -45 -53 -25 -22 -30 -52 -13 -75 16 -20
16 -20 31 3 9 12 22 22 29 22 8 0 14 4 14 9 0 5 8 8 18 7 14 -1 17 9 20 62 4
75 -11 81 -54 25z"/>
<path d="M1350 1963 c1 -5 12 -21 25 -38 25 -31 48 -28 28 4 -9 14 -9 21 0 30
8 8 3 11 -21 11 -18 0 -32 -3 -32 -7z"/>
<path d="M3734 1618 c-26 -18 -48 -37 -48 -43 -1 -5 14 -11 32 -13 26 -3 39 3
62 28 59 63 31 79 -46 28z"/>
<path d="M2340 1625 c0 -8 5 -15 10 -15 6 0 10 7 10 15 0 8 -4 15 -10 15 -5 0
-10 -7 -10 -15z"/>
<path d="M40 1601 c0 -12 6 -21 15 -21 8 0 15 -5 15 -11 0 -6 -7 -9 -15 -5
-10 4 -15 -1 -15 -15 0 -12 8 -23 20 -26 11 -3 20 -9 20 -14 0 -5 7 -6 15 -3
9 4 15 0 15 -9 0 -8 -5 -17 -10 -19 -6 -2 27 -2 72 0 110 4 110 4 106 54 -3
37 -6 43 -28 46 -14 2 -30 10 -37 19 -9 12 -25 14 -68 11 -35 -3 -55 -1 -55 6
0 6 -4 5 -9 -3 -8 -12 -12 -12 -25 -2 -14 12 -16 10 -16 -8z"/>
<path d="M2415 1600 c-3 -5 1 -10 10 -10 9 0 13 5 10 10 -3 6 -8 10 -10 10 -2
0 -7 -4 -10 -10z"/>
<path d="M2041 1554 c-42 -53 -11 -89 37 -44 17 17 20 25 12 40 -17 31 -27 32
-49 4z"/>
<path d="M5028 1333 c-18 -4 -26 -33 -10 -33 5 0 14 -11 20 -25 12 -27 48 -36
38 -10 -3 9 0 15 8 15 17 0 27 22 17 38 -8 13 -50 22 -73 15z"/>
<path d="M4460 1083 c-102 -52 -116 -62 -127 -93 -15 -43 -17 -176 -3 -185 14
-9 114 60 129 89 10 17 25 26 55 30 22 4 61 21 85 38 33 24 48 29 60 21 21
-13 26 -62 8 -76 -14 -11 -26 -57 -33 -117 -1 -14 -7 -47 -14 -75 -7 -30 -9
-78 -5 -121 7 -73 2 -94 -33 -135 -13 -15 -16 -34 -14 -79 3 -53 1 -63 -20
-80 l-23 -20 23 -6 c12 -4 25 -17 28 -30 8 -30 94 -81 152 -90 45 -7 54 3 26
27 -13 11 -15 26 -11 81 7 85 16 101 73 128 25 13 48 28 51 36 2 7 17 15 32
19 14 3 40 16 56 29 30 24 30 25 31 132 1 60 2 112 3 116 3 18 35 38 61 38 36
0 44 -22 30 -86 -14 -60 -5 -116 21 -132 19 -12 19 -7 19 254 0 152 -4 263 -9
260 -5 -3 -9 0 -8 7 1 35 -4 57 -14 57 -5 0 -7 -4 -4 -10 3 -5 -1 -10 -9 -10
-20 0 -21 -26 -1 -34 28 -10 15 -23 -40 -41 -79 -25 -157 -10 -217 40 -16 14
-37 25 -45 25 -9 0 -30 9 -48 20 -18 11 -59 23 -91 26 -57 6 -63 4 -174 -53z"/>
<path d="M3124 599 c-54 -20 -67 -38 -80 -106 -4 -21 -24 -60 -44 -88 -50 -68
-56 -82 -64 -145 -14 -102 -14 -169 0 -174 7 -3 16 1 21 7 21 29 56 102 64
131 8 32 33 107 48 141 5 11 17 39 26 63 18 42 38 57 34 25 -1 -10 -1 -40 0
-66 l1 -48 30 34 c17 19 30 41 30 50 0 8 7 17 15 21 8 3 15 13 15 22 0 9 8 28
19 42 33 47 60 100 54 106 -13 13 -121 4 -169 -15z"/>
<path d="M4274 502 c-6 -4 -20 -31 -30 -59 -18 -51 -18 -54 0 -87 14 -26 29
-37 68 -50 28 -9 69 -16 91 -16 l40 0 -23 25 c-13 14 -18 25 -12 25 16 0 15
25 -1 42 -8 7 -17 26 -21 41 -3 15 -11 27 -17 27 -11 0 -31 15 -57 43 -18 19
-22 20 -38 9z"/>
<path d="M1490 390 c0 -5 5 -10 11 -10 5 0 7 5 4 10 -3 6 -8 10 -11 10 -2 0
-4 -4 -4 -10z"/>
<path d="M920 282 c35 -31 50 -38 50 -24 0 4 -19 18 -43 31 l-42 23 35 -30z"/>
<path d="M1554 283 c-1 -10 -3 -24 -5 -31 -5 -16 26 -40 37 -29 9 9 -8 69 -22
74 -5 2 -10 -5 -10 -14z"/>
<path d="M2860 245 c0 -8 5 -15 10 -15 6 0 10 7 10 15 0 8 -4 15 -10 15 -5 0
-10 -7 -10 -15z"/>
<path d="M995 230 c3 -5 11 -10 16 -10 6 0 7 5 4 10 -3 6 -11 10 -16 10 -6 0
-7 -4 -4 -10z"/>
<path d="M5078 190 c-9 -17 -15 -30 -12 -30 8 0 43 43 44 53 0 17 -16 5 -32
-23z"/>
<path d="M1431 191 l-24 -7 24 -16 c33 -22 56 -46 109 -111 44 -55 46 -56 98
-57 l52 0 -21 42 c-37 75 -145 160 -198 157 -9 -1 -27 -4 -40 -8z"/>
<path d="M4287 192 c-17 -28 -17 -97 -1 -142 l18 -50 223 0 c123 0 223 2 223
5 0 3 -10 10 -22 15 -13 6 -30 14 -38 18 -118 66 -216 111 -290 134 -92 27
-108 30 -113 20z"/>
<path d="M2783 153 c-3 -10 -12 -25 -18 -33 -14 -16 -25 -80 -15 -80 3 0 19
18 36 41 16 22 35 47 42 55 7 7 10 18 7 24 -10 16 -45 11 -52 -7z"/>
<path d="M1185 149 c18 -5 33 -5 39 1 7 7 -4 10 -29 9 -40 -1 -40 -1 -10 -10z"/>
<path d="M2909 54 c-12 -14 -11 -16 5 -13 11 2 21 10 24 17 5 17 -13 15 -29
-4z"/>
</g>
</svg>
